<svg xmlns="http://www.w3.org/2000/svg" width="600" height="400" viewBox="0 0 600 400">
<rect width="600" height="400" fill="#161820"/>
<defs>
  <pattern id="dots" width="28" height="28" patternUnits="userSpaceOnUse">
    <circle cx="2" cy="2" r="1.4" fill="#E8B400" opacity="0.16"/>
  </pattern>
</defs>
<rect width="600" height="400" fill="url(#dots)"/>
<rect x="0.5" y="0.5" width="599" height="399" fill="none" stroke="#E8B400" stroke-opacity="0.3" stroke-width="1"/>

<!-- minarets -->
<rect x="222" y="150" width="14" height="120" fill="none" stroke="#E8B400" stroke-width="3"/>
<circle cx="229" cy="140" r="9" fill="none" stroke="#E8B400" stroke-width="3"/>
<path d="M229 120 L224 132 L234 132 Z" fill="#E8B400"/>

<rect x="364" y="150" width="14" height="120" fill="none" stroke="#E8B400" stroke-width="3"/>
<circle cx="371" cy="140" r="9" fill="none" stroke="#E8B400" stroke-width="3"/>
<path d="M371 120 L366 132 L376 132 Z" fill="#E8B400"/>

<!-- main building -->
<rect x="255" y="220" width="90" height="60" fill="none" stroke="#E8B400" stroke-width="3"/>
<path d="M255 220 A45 45 0 0 1 345 220" fill="none" stroke="#E8B400" stroke-width="3"/>
<circle cx="300" cy="163" r="6" fill="#E8B400"/>
<line x1="300" y1="175" x2="300" y2="163" stroke="#E8B400" stroke-width="2"/>

<!-- door -->
<path d="M292 280 L292 258 A8 8 0 0 1 308 258 L308 280 Z" fill="none" stroke="#E8B400" stroke-width="2.5"/>

<!-- crescent -->
<path d="M300 130 A16 16 0 1 0 316 148 A12 12 0 1 1 300 130 Z" fill="#E8B400"/>
</svg>
